<?xml version="1.0" standalone="no"?>
<!DOCTYPE svg PUBLIC "-//W3C//DTD SVG 20010904//EN"
 "http://www.w3.org/TR/2001/REC-SVG-20010904/DTD/svg10.dtd">
<svg version="1.0" xmlns="http://www.w3.org/2000/svg"
 width="260.000000pt" height="260.000000pt" viewBox="0 0 260.000000 260.000000"
 preserveAspectRatio="xMidYMid meet">
<metadata>
Created by potrace 1.14, written by Peter Selinger 2001-2017
</metadata>
<g transform="translate(0.000000,260.000000) scale(0.100000,-0.100000)"
fill="#000000" stroke="none">
<path d="M513 2562 c-25 -16 -81 -158 -93 -235 -17 -106 -7 -242 25 -344 l25
-80 -25 -73 c-31 -92 -43 -257 -25 -345 14 -72 52 -163 97 -229 17 -27 30 -53
27 -58 -7 -11 -64 -10 -162 4 -45 6 -85 8 -88 5 -4 -3 -1 -28 5 -54 104 -428
409 -799 867 -1054 58 -33 115 -59 125 -59 11 0 52 16 92 36 362 182 649 460
816 791 43 86 95 233 106 302 l7 44 -48 -6 c-125 -17 -214 -20 -214 -8 0 6 16
35 35 64 109 164 132 374 64 575 l-21 63 26 81 c47 142 50 322 6 452 -30 92
-49 112 -117 126 -139 29 -308 -24 -491 -156 -19 -14 -30 -15 -79 -5 -71 14
-216 14 -321 0 l-81 -11 -67 48 c-89 62 -175 101 -260 119 -74 16 -211 20
-231 7z m277 -72 c65 -21 210 -98 210 -110 0 -4 -26 -17 -57 -28 -40 -15 -61
-18 -70 -11 -20 18 -128 -48 -207 -126 -39 -39 -91 -103 -115 -143 -24 -39
-47 -70 -51 -67 -17 10 -34 122 -34 220 1 158 37 269 95 287 41 12 161 1 229
-22z m1251 20 c31 -9 40 -18 57 -58 46 -106 53 -283 17 -401 l-17 -54 -41 69
c-78 130 -279 298 -331 278 -18 -7 -126 23 -126 35 0 13 110 73 178 98 113 42
195 52 263 33z m-501 -190 c186 -54 293 -114 393 -220 156 -164 231 -470 163
-661 -22 -62 -74 -150 -97 -164 -5 -4 -27 8 -48 27 -21 18 -45 38 -54 43 -15
9 -15 14 5 55 19 38 22 62 23 156 0 108 -1 112 -39 188 -184 372 -763 448
-1071 141 -147 -146 -189 -308 -123 -473 l25 -61 -27 -11 c-15 -6 -40 -25 -56
-41 -15 -16 -31 -29 -35 -29 -13 0 -72 102 -95 165 -34 93 -39 173 -20 278 36
190 95 307 211 415 110 103 261 175 440 211 86 17 319 6 405 -19z m-44 -338
c155 -49 275 -145 335 -267 30 -62 34 -79 34 -150 0 -69 -4 -88 -30 -139 -16
-33 -37 -63 -45 -67 -8 -4 -32 -14 -53 -23 -22 -9 -45 -29 -55 -47 -37 -66
-30 -63 -123 -45 -46 9 -123 28 -170 42 l-85 24 -135 -34 c-74 -19 -155 -37
-180 -41 -44 -7 -46 -6 -59 24 -18 44 -57 79 -100 91 -29 8 -42 19 -63 57 -76
142 -43 298 92 434 74 74 153 117 271 149 96 26 272 22 366 -8z m-674 -693
c96 -26 88 -168 -12 -209 -39 -16 -125 -8 -149 15 -57 51 -33 141 49 183 50
25 60 26 112 11z m1054 -8 c64 -29 103 -96 85 -145 -23 -59 -124 -84 -197 -50
-83 40 -85 156 -4 196 44 23 65 22 116 -1z m-445 -75 c74 -19 153 -37 176 -41
36 -6 48 -14 70 -48 70 -103 225 -117 318 -27 25 24 43 30 115 40 47 6 93 13
103 16 25 8 22 -30 -9 -118 -92 -255 -293 -514 -549 -707 -138 -105 -321 -211
-363 -211 -27 0 -267 146 -367 225 -196 152 -381 369 -469 548 -48 99 -100
243 -92 256 3 4 51 1 108 -7 84 -12 106 -19 120 -37 10 -13 39 -33 65 -45 93
-44 213 -10 258 74 16 30 24 34 89 45 40 6 119 25 176 41 58 15 108 29 111 29
3 1 66 -14 140 -33z"/>
<path d="M884 1728 c-24 -11 -44 -48 -44 -79 0 -11 14 -34 30 -51 27 -26 36
-30 68 -25 46 8 72 38 72 84 0 64 -65 101 -126 71z m21 -58 c0 -16 -6 -26 -18
-28 -19 -4 -32 20 -23 44 9 25 41 13 41 -16z"/>
<path d="M1623 1730 c-26 -11 -43 -40 -43 -75 0 -38 15 -60 49 -75 59 -24 121
14 121 73 -1 65 -62 103 -127 77z m21 -47 c4 -9 0 -23 -9 -32 -13 -14 -17 -14
-31 1 -9 9 -14 24 -11 32 8 21 43 20 51 -1z"/>
<path d="M1255 1706 c-5 -11 -3 -25 3 -35 23 -31 24 -42 7 -61 -29 -32 -95
-24 -95 12 0 26 -24 18 -28 -9 -2 -12 6 -28 20 -39 13 -11 29 -38 36 -62 13
-44 57 -82 95 -82 50 0 107 58 107 110 0 11 4 20 9 20 18 0 41 32 41 56 0 31
-18 31 -30 -1 -11 -30 -53 -34 -88 -9 -26 18 -28 36 -7 54 8 7 15 21 15 31 0
21 -22 38 -28 21 -5 -16 -39 -15 -45 1 -3 8 -7 6 -12 -7z m90 -196 c-21 -40
-51 -47 -81 -19 -31 29 -30 50 4 70 25 14 30 14 59 -4 32 -18 32 -20 18 -47z"/>
</g>
</svg>
